<?xml version="1.0" standalone="no"?>
<!DOCTYPE svg PUBLIC "-//W3C//DTD SVG 20010904//EN"
 "http://www.w3.org/TR/2001/REC-SVG-20010904/DTD/svg10.dtd">
<svg version="1.0" xmlns="http://www.w3.org/2000/svg"
 width="250.000000pt" height="250.000000pt" viewBox="0 0 250.000000 250.000000"
 preserveAspectRatio="xMidYMid meet">
<metadata>
Created by potrace 1.14, written by Peter Selinger 2001-2017
</metadata>
<g transform="translate(0.000000,250.000000) scale(0.100000,-0.100000)"
fill="#000000" stroke="none">
<path d="M909 2396 c-2 -2 -26 -7 -53 -10 -51 -7 -89 -20 -228 -74 -43 -16
-78 -28 -78 -24 0 3 -14 -15 -31 -39 -17 -24 -46 -56 -63 -71 -30 -27 -31 -31
-30 -103 1 -53 8 -91 23 -125 17 -41 22 -76 26 -192 7 -186 17 -629 19 -838 2
-165 -13 -311 -36 -353 -7 -13 -12 -71 -13 -146 l0 -123 35 -18 c104 -52 318
-109 474 -127 116 -13 397 -6 446 11 8 3 33 8 54 11 22 3 63 12 93 21 29 8 54
15 55 14 4 -1 201 80 207 85 8 8 -1 240 -10 257 -8 16 -6 18 23 19 85 3 156
28 246 86 31 20 75 46 97 58 23 12 53 42 72 69 32 49 71 155 78 215 2 18 6 40
9 50 18 62 27 603 12 706 -22 145 -139 246 -326 282 -47 9 -87 18 -89 20 -4 2
-7 42 -10 106 -1 29 -48 64 -94 71 -26 4 -66 22 -100 46 -40 28 -72 42 -105
45 -26 4 -90 14 -142 25 -137 27 -163 30 -285 35 -60 3 -147 7 -191 10 -45 2
-83 3 -85 1z m1080 -656 c61 -25 73 -74 74 -285 0 -127 -6 -210 -23 -290 -32
-159 -48 -191 -118 -238 -42 -28 -149 -64 -159 -53 -8 8 -7 59 13 596 3 91 6
173 6 182 -1 12 7 16 25 15 21 -2 28 4 36 28 16 48 32 61 77 59 22 -1 53 -7
69 -14z"/>
</g>
</svg>
